<mxfile host="app.diagrams.net" modified="2020-09-18T16:37:12.160Z" agent="5.0 (Windows NT 10.0; Win64; x64) AppleWebKit/537.36 (KHTML, like Gecko) Chrome/85.0.4183.102 Safari/537.36" etag="ovND_XrlRzTUzpOqUVWm" version="13.6.10" type="github">
  <diagram id="4azKM8P37WWzpmBWxqD8" name="第 1 页">
    <mxGraphModel dx="4853" dy="607" grid="1" gridSize="10" guides="1" tooltips="1" connect="1" arrows="1" fold="1" page="1" pageScale="1" pageWidth="3300" pageHeight="4681" math="0" shadow="0">
      <root>
        <mxCell id="0" />
        <mxCell id="1" parent="0" />
        <mxCell id="SFyTLNCFnCW1Vel4IRKU-1" value="书店访客" style="shape=umlActor;verticalLabelPosition=bottom;verticalAlign=top;html=1;fillColor=#f8cecc;strokeColor=#b85450;" vertex="1" parent="1">
          <mxGeometry x="240" y="270" width="100" height="120" as="geometry" />
        </mxCell>
        <mxCell id="SFyTLNCFnCW1Vel4IRKU-2" value="" style="shape=umlActor;verticalLabelPosition=bottom;verticalAlign=top;html=1;fillColor=#d80073;strokeColor=#A50040;fontColor=#ffffff;" vertex="1" parent="1">
          <mxGeometry x="490" y="440" width="100" height="120" as="geometry" />
        </mxCell>
        <mxCell id="SFyTLNCFnCW1Vel4IRKU-4" value="书店会员" style="shape=umlActor;verticalLabelPosition=bottom;verticalAlign=top;html=1;fillColor=#d5e8d4;strokeColor=#82b366;" vertex="1" parent="1">
          <mxGeometry x="160" y="550" width="100" height="120" as="geometry" />
        </mxCell>
        <mxCell id="SFyTLNCFnCW1Vel4IRKU-6" value="书店管理员" style="text;html=1;align=center;verticalAlign=middle;resizable=0;points=[];autosize=1;" vertex="1" parent="1">
          <mxGeometry x="500" y="560" width="80" height="20" as="geometry" />
        </mxCell>
        <mxCell id="SFyTLNCFnCW1Vel4IRKU-7" value="Extends" style="endArrow=block;endSize=16;endFill=0;html=1;entryX=0;entryY=1;entryDx=0;entryDy=0;entryPerimeter=0;fillColor=#d5e8d4;strokeColor=#82b366;" edge="1" parent="1" source="SFyTLNCFnCW1Vel4IRKU-4" target="SFyTLNCFnCW1Vel4IRKU-1">
          <mxGeometry width="160" relative="1" as="geometry">
            <mxPoint x="210" y="390" as="sourcePoint" />
            <mxPoint x="210" y="390" as="targetPoint" />
          </mxGeometry>
        </mxCell>
        <mxCell id="SFyTLNCFnCW1Vel4IRKU-31" style="edgeStyle=none;rounded=0;orthogonalLoop=1;jettySize=auto;html=1;entryX=1;entryY=0.5;entryDx=0;entryDy=0;endArrow=none;endFill=0;fillColor=#f8cecc;strokeColor=#b85450;exitX=0;exitY=0.3333333333333333;exitDx=0;exitDy=0;exitPerimeter=0;" edge="1" parent="1" source="SFyTLNCFnCW1Vel4IRKU-8" target="SFyTLNCFnCW1Vel4IRKU-13">
          <mxGeometry relative="1" as="geometry">
            <mxPoint x="265" y="998.913043478261" as="sourcePoint" />
          </mxGeometry>
        </mxCell>
        <mxCell id="SFyTLNCFnCW1Vel4IRKU-60" style="edgeStyle=none;orthogonalLoop=1;jettySize=auto;html=1;endArrow=none;endSize=12;endFill=0;fillColor=#f8cecc;strokeColor=#b85450;" edge="1" parent="1" source="SFyTLNCFnCW1Vel4IRKU-8" target="SFyTLNCFnCW1Vel4IRKU-14">
          <mxGeometry relative="1" as="geometry" />
        </mxCell>
        <mxCell id="SFyTLNCFnCW1Vel4IRKU-8" value="&lt;font style=&quot;font-size: 16px&quot;&gt;书店访客&lt;/font&gt;" style="shape=umlActor;verticalLabelPosition=bottom;verticalAlign=top;html=1;fillColor=#f8cecc;strokeColor=#b85450;" vertex="1" parent="1">
          <mxGeometry x="225" y="900" width="100" height="120" as="geometry" />
        </mxCell>
        <mxCell id="SFyTLNCFnCW1Vel4IRKU-64" style="edgeStyle=none;orthogonalLoop=1;jettySize=auto;html=1;endArrow=none;endFill=0;endSize=12;fillColor=#d80073;strokeColor=#A50040;" edge="1" parent="1" source="SFyTLNCFnCW1Vel4IRKU-9">
          <mxGeometry relative="1" as="geometry">
            <mxPoint x="510" y="915" as="targetPoint" />
          </mxGeometry>
        </mxCell>
        <mxCell id="SFyTLNCFnCW1Vel4IRKU-65" style="edgeStyle=none;orthogonalLoop=1;jettySize=auto;html=1;entryX=0.5;entryY=1;entryDx=0;entryDy=0;endArrow=none;endFill=0;endSize=12;fillColor=#d80073;strokeColor=#A50040;" edge="1" parent="1" source="SFyTLNCFnCW1Vel4IRKU-9">
          <mxGeometry relative="1" as="geometry">
            <mxPoint x="740" y="1020" as="targetPoint" />
          </mxGeometry>
        </mxCell>
        <mxCell id="SFyTLNCFnCW1Vel4IRKU-9" value="" style="shape=umlActor;verticalLabelPosition=bottom;verticalAlign=top;html=1;fillColor=#d80073;strokeColor=#A50040;fontColor=#ffffff;" vertex="1" parent="1">
          <mxGeometry x="460" y="1050" width="100" height="120" as="geometry" />
        </mxCell>
        <mxCell id="SFyTLNCFnCW1Vel4IRKU-37" style="edgeStyle=none;rounded=0;orthogonalLoop=1;jettySize=auto;html=1;entryX=1;entryY=0.5;entryDx=0;entryDy=0;endArrow=none;endFill=0;fillColor=#d5e8d4;strokeColor=#82b366;" edge="1" parent="1" source="SFyTLNCFnCW1Vel4IRKU-10" target="SFyTLNCFnCW1Vel4IRKU-34">
          <mxGeometry relative="1" as="geometry" />
        </mxCell>
        <mxCell id="SFyTLNCFnCW1Vel4IRKU-38" style="edgeStyle=none;rounded=0;orthogonalLoop=1;jettySize=auto;html=1;entryX=1;entryY=0.3;entryDx=0;entryDy=0;entryPerimeter=0;endArrow=none;endFill=0;fillColor=#d5e8d4;strokeColor=#82b366;" edge="1" parent="1" source="SFyTLNCFnCW1Vel4IRKU-10" target="SFyTLNCFnCW1Vel4IRKU-33">
          <mxGeometry relative="1" as="geometry" />
        </mxCell>
        <mxCell id="SFyTLNCFnCW1Vel4IRKU-207" style="edgeStyle=none;orthogonalLoop=1;jettySize=auto;html=1;entryX=1;entryY=0;entryDx=0;entryDy=0;endArrow=none;endFill=0;endSize=12;fillColor=#d5e8d4;strokeColor=#82b366;" edge="1" parent="1" source="SFyTLNCFnCW1Vel4IRKU-10" target="SFyTLNCFnCW1Vel4IRKU-35">
          <mxGeometry relative="1" as="geometry" />
        </mxCell>
        <mxCell id="SFyTLNCFnCW1Vel4IRKU-10" value="&lt;font style=&quot;font-size: 16px&quot;&gt;书店会员&lt;/font&gt;" style="shape=umlActor;verticalLabelPosition=bottom;verticalAlign=top;html=1;fillColor=#d5e8d4;strokeColor=#82b366;" vertex="1" parent="1">
          <mxGeometry x="330" y="1200" width="100" height="120" as="geometry" />
        </mxCell>
        <mxCell id="SFyTLNCFnCW1Vel4IRKU-11" value="&lt;font style=&quot;font-size: 16px&quot;&gt;书店管理员&lt;/font&gt;" style="text;html=1;align=center;verticalAlign=middle;resizable=0;points=[];autosize=1;fillColor=#d80073;strokeColor=#A50040;fontColor=#ffffff;" vertex="1" parent="1">
          <mxGeometry x="470" y="1180" width="100" height="20" as="geometry" />
        </mxCell>
        <mxCell id="SFyTLNCFnCW1Vel4IRKU-12" value="Extends" style="endArrow=block;endSize=16;endFill=0;html=1;entryX=1;entryY=1;entryDx=0;entryDy=0;entryPerimeter=0;fillColor=#d5e8d4;strokeColor=#82b366;" edge="1" parent="1" source="SFyTLNCFnCW1Vel4IRKU-10" target="SFyTLNCFnCW1Vel4IRKU-8">
          <mxGeometry width="160" relative="1" as="geometry">
            <mxPoint x="220" y="1080" as="sourcePoint" />
            <mxPoint x="220" y="1080" as="targetPoint" />
          </mxGeometry>
        </mxCell>
        <mxCell id="SFyTLNCFnCW1Vel4IRKU-13" value="&lt;font style=&quot;font-size: 16px&quot;&gt;浏览图书&lt;/font&gt;" style="ellipse;whiteSpace=wrap;html=1;fillColor=#f8cecc;strokeColor=#b85450;" vertex="1" parent="1">
          <mxGeometry x="-10" y="925" width="140" height="70" as="geometry" />
        </mxCell>
        <mxCell id="SFyTLNCFnCW1Vel4IRKU-14" value="&lt;font style=&quot;font-size: 16px&quot;&gt;注册&lt;/font&gt;" style="ellipse;whiteSpace=wrap;html=1;fillColor=#f8cecc;strokeColor=#b85450;" vertex="1" parent="1">
          <mxGeometry x="80" y="820" width="140" height="70" as="geometry" />
        </mxCell>
        <mxCell id="SFyTLNCFnCW1Vel4IRKU-33" value="&lt;font style=&quot;font-size: 16px&quot;&gt;我的账户&lt;/font&gt;" style="ellipse;whiteSpace=wrap;html=1;fillColor=#d5e8d4;strokeColor=#82b366;" vertex="1" parent="1">
          <mxGeometry x="20" y="1210" width="130" height="70" as="geometry" />
        </mxCell>
        <mxCell id="SFyTLNCFnCW1Vel4IRKU-34" value="&lt;font style=&quot;font-size: 16px&quot;&gt;购物车&lt;/font&gt;" style="ellipse;whiteSpace=wrap;html=1;fillColor=#d5e8d4;strokeColor=#82b366;" vertex="1" parent="1">
          <mxGeometry x="-5" y="1110" width="140" height="70" as="geometry" />
        </mxCell>
        <mxCell id="SFyTLNCFnCW1Vel4IRKU-35" value="&lt;font style=&quot;font-size: 16px&quot;&gt;我的订单&lt;/font&gt;" style="ellipse;whiteSpace=wrap;html=1;fillColor=#d5e8d4;strokeColor=#82b366;" vertex="1" parent="1">
          <mxGeometry x="65" y="1300" width="140" height="75" as="geometry" />
        </mxCell>
        <mxCell id="SFyTLNCFnCW1Vel4IRKU-62" value="&lt;font style=&quot;font-size: 16px&quot;&gt;管理图书分类信息&lt;/font&gt;" style="ellipse;whiteSpace=wrap;html=1;fillColor=#d80073;strokeColor=#A50040;fontColor=#ffffff;" vertex="1" parent="1">
          <mxGeometry x="450" y="835" width="140" height="75" as="geometry" />
        </mxCell>
        <mxCell id="SFyTLNCFnCW1Vel4IRKU-63" value="&lt;font style=&quot;font-size: 16px&quot;&gt;管理图书信息&lt;/font&gt;" style="ellipse;whiteSpace=wrap;html=1;fillColor=#d80073;strokeColor=#A50040;fontColor=#ffffff;" vertex="1" parent="1">
          <mxGeometry x="740" y="975" width="140" height="75" as="geometry" />
        </mxCell>
        <mxCell id="SFyTLNCFnCW1Vel4IRKU-66" style="edgeStyle=none;rounded=0;orthogonalLoop=1;jettySize=auto;html=1;entryX=1;entryY=0.5;entryDx=0;entryDy=0;endArrow=none;endFill=0;fillColor=#f8cecc;strokeColor=#b85450;exitX=0;exitY=0.3333333333333333;exitDx=0;exitDy=0;exitPerimeter=0;" edge="1" parent="1" source="SFyTLNCFnCW1Vel4IRKU-68" target="SFyTLNCFnCW1Vel4IRKU-79">
          <mxGeometry relative="1" as="geometry">
            <mxPoint x="220" y="1830" as="sourcePoint" />
          </mxGeometry>
        </mxCell>
        <mxCell id="SFyTLNCFnCW1Vel4IRKU-67" style="edgeStyle=none;orthogonalLoop=1;jettySize=auto;html=1;endArrow=none;endSize=12;endFill=0;fillColor=#f8cecc;strokeColor=#b85450;" edge="1" parent="1" source="SFyTLNCFnCW1Vel4IRKU-68" target="SFyTLNCFnCW1Vel4IRKU-80">
          <mxGeometry relative="1" as="geometry" />
        </mxCell>
        <mxCell id="SFyTLNCFnCW1Vel4IRKU-68" value="&lt;font style=&quot;font-size: 16px&quot;&gt;书店访客&lt;/font&gt;" style="shape=umlActor;verticalLabelPosition=bottom;verticalAlign=top;html=1;fillColor=#f8cecc;strokeColor=#b85450;" vertex="1" parent="1">
          <mxGeometry x="180" y="1930" width="100" height="120" as="geometry" />
        </mxCell>
        <mxCell id="SFyTLNCFnCW1Vel4IRKU-69" style="edgeStyle=none;orthogonalLoop=1;jettySize=auto;html=1;endArrow=none;endFill=0;endSize=12;fillColor=#d80073;strokeColor=#A50040;" edge="1" parent="1" source="SFyTLNCFnCW1Vel4IRKU-111">
          <mxGeometry relative="1" as="geometry">
            <mxPoint x="1110" y="2155" as="targetPoint" />
          </mxGeometry>
        </mxCell>
        <mxCell id="SFyTLNCFnCW1Vel4IRKU-70" style="edgeStyle=none;orthogonalLoop=1;jettySize=auto;html=1;entryX=0;entryY=0.5;entryDx=0;entryDy=0;endArrow=none;endFill=0;endSize=12;fillColor=#d80073;strokeColor=#A50040;" edge="1" parent="1" source="SFyTLNCFnCW1Vel4IRKU-71" target="SFyTLNCFnCW1Vel4IRKU-112">
          <mxGeometry relative="1" as="geometry">
            <mxPoint x="1340" y="2260" as="targetPoint" />
          </mxGeometry>
        </mxCell>
        <mxCell id="SFyTLNCFnCW1Vel4IRKU-71" value="" style="shape=umlActor;verticalLabelPosition=bottom;verticalAlign=top;html=1;fillColor=#d80073;strokeColor=#A50040;fontColor=#ffffff;" vertex="1" parent="1">
          <mxGeometry x="1060" y="2290" width="100" height="120" as="geometry" />
        </mxCell>
        <mxCell id="SFyTLNCFnCW1Vel4IRKU-72" style="edgeStyle=none;rounded=0;orthogonalLoop=1;jettySize=auto;html=1;entryX=0.607;entryY=1.026;entryDx=0;entryDy=0;endArrow=none;endFill=0;fillColor=#d5e8d4;strokeColor=#82b366;entryPerimeter=0;" edge="1" parent="1" source="SFyTLNCFnCW1Vel4IRKU-76" target="SFyTLNCFnCW1Vel4IRKU-103">
          <mxGeometry relative="1" as="geometry" />
        </mxCell>
        <mxCell id="SFyTLNCFnCW1Vel4IRKU-73" style="edgeStyle=none;rounded=0;orthogonalLoop=1;jettySize=auto;html=1;entryX=1;entryY=0.3;entryDx=0;entryDy=0;entryPerimeter=0;endArrow=none;endFill=0;fillColor=#d5e8d4;strokeColor=#82b366;" edge="1" parent="1" source="SFyTLNCFnCW1Vel4IRKU-76" target="SFyTLNCFnCW1Vel4IRKU-96">
          <mxGeometry relative="1" as="geometry" />
        </mxCell>
        <mxCell id="SFyTLNCFnCW1Vel4IRKU-74" style="edgeStyle=none;rounded=0;orthogonalLoop=1;jettySize=auto;html=1;endArrow=none;endFill=0;" edge="1" parent="1" source="SFyTLNCFnCW1Vel4IRKU-76" target="SFyTLNCFnCW1Vel4IRKU-104">
          <mxGeometry relative="1" as="geometry" />
        </mxCell>
        <mxCell id="SFyTLNCFnCW1Vel4IRKU-75" value="" style="edgeStyle=none;orthogonalLoop=1;jettySize=auto;html=1;dashed=1;endArrow=open;endSize=12;fillColor=#d5e8d4;strokeColor=#82b366;" edge="1" parent="1" source="SFyTLNCFnCW1Vel4IRKU-76" target="SFyTLNCFnCW1Vel4IRKU-104">
          <mxGeometry relative="1" as="geometry" />
        </mxCell>
        <mxCell id="SFyTLNCFnCW1Vel4IRKU-76" value="&lt;font style=&quot;font-size: 16px&quot;&gt;书店会员&lt;/font&gt;" style="shape=umlActor;verticalLabelPosition=bottom;verticalAlign=top;html=1;fillColor=#d5e8d4;strokeColor=#82b366;" vertex="1" parent="1">
          <mxGeometry x="270" y="2557.5" width="100" height="120" as="geometry" />
        </mxCell>
        <mxCell id="SFyTLNCFnCW1Vel4IRKU-77" value="&lt;font style=&quot;font-size: 16px&quot;&gt;书店管理员&lt;/font&gt;" style="text;html=1;align=center;verticalAlign=middle;resizable=0;points=[];autosize=1;fillColor=#d80073;strokeColor=#A50040;fontColor=#ffffff;" vertex="1" parent="1">
          <mxGeometry x="1070" y="2420" width="100" height="20" as="geometry" />
        </mxCell>
        <mxCell id="SFyTLNCFnCW1Vel4IRKU-79" value="&lt;font style=&quot;font-size: 16px&quot;&gt;浏览图书&lt;/font&gt;" style="ellipse;whiteSpace=wrap;html=1;fillColor=#f8cecc;strokeColor=#b85450;" vertex="1" parent="1">
          <mxGeometry x="-60" y="1850" width="140" height="70" as="geometry" />
        </mxCell>
        <mxCell id="SFyTLNCFnCW1Vel4IRKU-80" value="&lt;font style=&quot;font-size: 16px&quot;&gt;注册&lt;/font&gt;" style="ellipse;whiteSpace=wrap;html=1;fillColor=#f8cecc;strokeColor=#b85450;" vertex="1" parent="1">
          <mxGeometry x="265" y="1740" width="140" height="70" as="geometry" />
        </mxCell>
        <mxCell id="SFyTLNCFnCW1Vel4IRKU-81" value="&lt;font style=&quot;font-size: 16px&quot;&gt;模糊查询&lt;/font&gt;" style="ellipse;whiteSpace=wrap;html=1;fillColor=#f8cecc;strokeColor=#b85450;" vertex="1" parent="1">
          <mxGeometry x="60" y="1670" width="140" height="70" as="geometry" />
        </mxCell>
        <mxCell id="SFyTLNCFnCW1Vel4IRKU-82" value="&lt;font style=&quot;font-size: 16px&quot;&gt;浏览新书&lt;/font&gt;" style="ellipse;whiteSpace=wrap;html=1;fillColor=#f8cecc;strokeColor=#b85450;" vertex="1" parent="1">
          <mxGeometry x="-300" y="1780" width="140" height="70" as="geometry" />
        </mxCell>
        <mxCell id="SFyTLNCFnCW1Vel4IRKU-83" value="&lt;font style=&quot;font-size: 16px&quot;&gt;浏览&lt;span&gt;排行榜&lt;/span&gt;&lt;/font&gt;" style="ellipse;whiteSpace=wrap;html=1;fillColor=#f8cecc;strokeColor=#b85450;" vertex="1" parent="1">
          <mxGeometry x="-240" y="1710" width="140" height="70" as="geometry" />
        </mxCell>
        <mxCell id="SFyTLNCFnCW1Vel4IRKU-84" value="《include》" style="endArrow=open;endSize=12;dashed=1;html=1;exitX=0.5;exitY=0;exitDx=0;exitDy=0;fillColor=#f8cecc;strokeColor=#b85450;" edge="1" parent="1" source="SFyTLNCFnCW1Vel4IRKU-79" target="SFyTLNCFnCW1Vel4IRKU-81">
          <mxGeometry x="0.1182" y="1" width="160" relative="1" as="geometry">
            <mxPoint x="-10" y="1849" as="sourcePoint" />
            <mxPoint x="60" y="1660" as="targetPoint" />
            <mxPoint as="offset" />
          </mxGeometry>
        </mxCell>
        <mxCell id="SFyTLNCFnCW1Vel4IRKU-85" value="《include》" style="endArrow=open;endSize=12;dashed=1;html=1;exitX=0.35;exitY=0.029;exitDx=0;exitDy=0;exitPerimeter=0;fillColor=#f8cecc;strokeColor=#b85450;" edge="1" parent="1" source="SFyTLNCFnCW1Vel4IRKU-79" target="SFyTLNCFnCW1Vel4IRKU-82">
          <mxGeometry x="0.1182" y="1" width="160" relative="1" as="geometry">
            <mxPoint x="70.5025253169415" y="1760.2512626584708" as="sourcePoint" />
            <mxPoint x="-91.59765452541797" y="1742.435037551585" as="targetPoint" />
            <mxPoint as="offset" />
          </mxGeometry>
        </mxCell>
        <mxCell id="SFyTLNCFnCW1Vel4IRKU-86" value="《include》" style="endArrow=open;endSize=12;dashed=1;html=1;exitX=0.357;exitY=-0.043;exitDx=0;exitDy=0;exitPerimeter=0;fillColor=#f8cecc;strokeColor=#b85450;" edge="1" parent="1" source="SFyTLNCFnCW1Vel4IRKU-79" target="SFyTLNCFnCW1Vel4IRKU-83">
          <mxGeometry x="0.1182" y="1" width="160" relative="1" as="geometry">
            <mxPoint x="70.5025253169415" y="1760.2512626584708" as="sourcePoint" />
            <mxPoint x="17.16399000405181" y="1697.2572381298114" as="targetPoint" />
            <mxPoint as="offset" />
          </mxGeometry>
        </mxCell>
        <mxCell id="SFyTLNCFnCW1Vel4IRKU-87" value="&lt;font style=&quot;font-size: 16px&quot;&gt;浏览打折图书&lt;/font&gt;" style="ellipse;whiteSpace=wrap;html=1;fillColor=#f8cecc;strokeColor=#b85450;" vertex="1" parent="1">
          <mxGeometry x="-100" y="1670" width="140" height="70" as="geometry" />
        </mxCell>
        <mxCell id="SFyTLNCFnCW1Vel4IRKU-88" value="《include》" style="endArrow=open;endSize=12;dashed=1;html=1;fillColor=#f8cecc;strokeColor=#b85450;" edge="1" parent="1" target="SFyTLNCFnCW1Vel4IRKU-87">
          <mxGeometry x="0.1182" y="1" width="160" relative="1" as="geometry">
            <mxPoint x="10" y="1846" as="sourcePoint" />
            <mxPoint x="7.481631374207609" y="1689.9773420248894" as="targetPoint" />
            <mxPoint as="offset" />
          </mxGeometry>
        </mxCell>
        <mxCell id="SFyTLNCFnCW1Vel4IRKU-89" value="&lt;font style=&quot;font-size: 16px&quot;&gt;分类浏览图书&lt;/font&gt;" style="ellipse;whiteSpace=wrap;html=1;fillColor=#f8cecc;strokeColor=#b85450;" vertex="1" parent="1">
          <mxGeometry x="-310" y="1870" width="140" height="70" as="geometry" />
        </mxCell>
        <mxCell id="SFyTLNCFnCW1Vel4IRKU-90" value="《include》" style="endArrow=open;endSize=12;dashed=1;html=1;exitX=0.293;exitY=0;exitDx=0;exitDy=0;exitPerimeter=0;fillColor=#f8cecc;strokeColor=#b85450;" edge="1" parent="1" source="SFyTLNCFnCW1Vel4IRKU-79" target="SFyTLNCFnCW1Vel4IRKU-89">
          <mxGeometry x="0.1689" y="1" width="160" relative="1" as="geometry">
            <mxPoint x="-1" y="1862.03" as="sourcePoint" />
            <mxPoint x="-93.73650695864444" y="1747.4431384628506" as="targetPoint" />
            <mxPoint as="offset" />
          </mxGeometry>
        </mxCell>
        <mxCell id="SFyTLNCFnCW1Vel4IRKU-91" value="&lt;font style=&quot;font-size: 16px&quot;&gt;会员登陆&lt;/font&gt;" style="ellipse;whiteSpace=wrap;html=1;fillColor=#d5e8d4;strokeColor=#82b366;" vertex="1" parent="1">
          <mxGeometry x="-165" y="2627.5" width="140" height="70" as="geometry" />
        </mxCell>
        <mxCell id="SFyTLNCFnCW1Vel4IRKU-92" style="edgeStyle=none;orthogonalLoop=1;jettySize=auto;html=1;dashed=1;endArrow=open;endSize=12;entryX=0.5;entryY=0;entryDx=0;entryDy=0;fillColor=#d5e8d4;strokeColor=#82b366;" edge="1" parent="1" source="SFyTLNCFnCW1Vel4IRKU-96" target="SFyTLNCFnCW1Vel4IRKU-109">
          <mxGeometry relative="1" as="geometry" />
        </mxCell>
        <mxCell id="SFyTLNCFnCW1Vel4IRKU-93" value="《include》" style="edgeLabel;html=1;align=center;verticalAlign=middle;resizable=0;points=[];" vertex="1" connectable="0" parent="SFyTLNCFnCW1Vel4IRKU-92">
          <mxGeometry x="0.2426" y="2" relative="1" as="geometry">
            <mxPoint as="offset" />
          </mxGeometry>
        </mxCell>
        <mxCell id="SFyTLNCFnCW1Vel4IRKU-94" style="edgeStyle=none;orthogonalLoop=1;jettySize=auto;html=1;dashed=1;endArrow=open;endSize=12;fillColor=#d5e8d4;strokeColor=#82b366;" edge="1" parent="1" source="SFyTLNCFnCW1Vel4IRKU-96" target="SFyTLNCFnCW1Vel4IRKU-108">
          <mxGeometry relative="1" as="geometry" />
        </mxCell>
        <mxCell id="SFyTLNCFnCW1Vel4IRKU-95" value="《include》" style="edgeLabel;html=1;align=center;verticalAlign=middle;resizable=0;points=[];" vertex="1" connectable="0" parent="SFyTLNCFnCW1Vel4IRKU-94">
          <mxGeometry x="-0.5159" y="1" relative="1" as="geometry">
            <mxPoint as="offset" />
          </mxGeometry>
        </mxCell>
        <mxCell id="SFyTLNCFnCW1Vel4IRKU-96" value="&lt;font style=&quot;font-size: 16px&quot;&gt;我的会员&lt;/font&gt;" style="ellipse;whiteSpace=wrap;html=1;fillColor=#d5e8d4;strokeColor=#82b366;" vertex="1" parent="1">
          <mxGeometry x="30" y="2567.5" width="130" height="70" as="geometry" />
        </mxCell>
        <mxCell id="SFyTLNCFnCW1Vel4IRKU-97" style="edgeStyle=none;orthogonalLoop=1;jettySize=auto;html=1;dashed=1;endArrow=open;endSize=12;fillColor=#d5e8d4;strokeColor=#82b366;" edge="1" parent="1" source="SFyTLNCFnCW1Vel4IRKU-103" target="SFyTLNCFnCW1Vel4IRKU-105">
          <mxGeometry relative="1" as="geometry" />
        </mxCell>
        <mxCell id="SFyTLNCFnCW1Vel4IRKU-98" value="《include》" style="edgeLabel;html=1;align=center;verticalAlign=middle;resizable=0;points=[];" vertex="1" connectable="0" parent="SFyTLNCFnCW1Vel4IRKU-97">
          <mxGeometry x="-0.1812" relative="1" as="geometry">
            <mxPoint as="offset" />
          </mxGeometry>
        </mxCell>
        <mxCell id="SFyTLNCFnCW1Vel4IRKU-99" style="edgeStyle=none;orthogonalLoop=1;jettySize=auto;html=1;entryX=0.724;entryY=0.967;entryDx=0;entryDy=0;dashed=1;endArrow=open;endSize=12;fillColor=#d5e8d4;strokeColor=#82b366;entryPerimeter=0;" edge="1" parent="1" source="SFyTLNCFnCW1Vel4IRKU-103" target="SFyTLNCFnCW1Vel4IRKU-106">
          <mxGeometry relative="1" as="geometry">
            <mxPoint x="-217.58129325908703" y="2590.463686517177" as="targetPoint" />
          </mxGeometry>
        </mxCell>
        <mxCell id="SFyTLNCFnCW1Vel4IRKU-100" value="《include》" style="edgeLabel;html=1;align=center;verticalAlign=middle;resizable=0;points=[];" vertex="1" connectable="0" parent="SFyTLNCFnCW1Vel4IRKU-99">
          <mxGeometry x="0.2716" relative="1" as="geometry">
            <mxPoint x="9.46" y="-5.1" as="offset" />
          </mxGeometry>
        </mxCell>
        <mxCell id="SFyTLNCFnCW1Vel4IRKU-101" style="edgeStyle=none;orthogonalLoop=1;jettySize=auto;html=1;dashed=1;endArrow=open;endSize=12;fillColor=#d5e8d4;strokeColor=#82b366;" edge="1" parent="1" source="SFyTLNCFnCW1Vel4IRKU-103" target="SFyTLNCFnCW1Vel4IRKU-107">
          <mxGeometry relative="1" as="geometry" />
        </mxCell>
        <mxCell id="SFyTLNCFnCW1Vel4IRKU-102" value="《include》" style="edgeLabel;html=1;align=center;verticalAlign=middle;resizable=0;points=[];" vertex="1" connectable="0" parent="SFyTLNCFnCW1Vel4IRKU-101">
          <mxGeometry x="0.2579" y="1" relative="1" as="geometry">
            <mxPoint x="30" y="18.9" as="offset" />
          </mxGeometry>
        </mxCell>
        <mxCell id="SFyTLNCFnCW1Vel4IRKU-103" value="&lt;font style=&quot;font-size: 16px&quot;&gt;购物车&lt;/font&gt;" style="ellipse;whiteSpace=wrap;html=1;fillColor=#d5e8d4;strokeColor=#82b366;" vertex="1" parent="1">
          <mxGeometry x="107.5" y="2455" width="140" height="70" as="geometry" />
        </mxCell>
        <mxCell id="SFyTLNCFnCW1Vel4IRKU-104" value="&lt;font style=&quot;font-size: 16px&quot;&gt;我的订单&lt;/font&gt;" style="ellipse;whiteSpace=wrap;html=1;fillColor=#d5e8d4;strokeColor=#82b366;" vertex="1" parent="1">
          <mxGeometry x="375" y="2482.5" width="140" height="75" as="geometry" />
        </mxCell>
        <mxCell id="SFyTLNCFnCW1Vel4IRKU-105" value="&lt;font style=&quot;font-size: 16px&quot;&gt;查看购物车&lt;/font&gt;" style="ellipse;whiteSpace=wrap;html=1;fillColor=#d5e8d4;strokeColor=#82b366;" vertex="1" parent="1">
          <mxGeometry x="177.5" y="2340" width="140" height="70" as="geometry" />
        </mxCell>
        <mxCell id="SFyTLNCFnCW1Vel4IRKU-106" value="&lt;font style=&quot;font-size: 16px&quot;&gt;修改购物车物品&lt;/font&gt;" style="ellipse;whiteSpace=wrap;html=1;fillColor=#d5e8d4;strokeColor=#82b366;" vertex="1" parent="1">
          <mxGeometry x="-12.5" y="2365" width="140" height="70" as="geometry" />
        </mxCell>
        <mxCell id="SFyTLNCFnCW1Vel4IRKU-107" value="&lt;font style=&quot;font-size: 16px&quot;&gt;提交订单&lt;/font&gt;" style="ellipse;whiteSpace=wrap;html=1;fillColor=#d5e8d4;strokeColor=#82b366;" vertex="1" parent="1">
          <mxGeometry x="-127.5" y="2455" width="140" height="70" as="geometry" />
        </mxCell>
        <mxCell id="SFyTLNCFnCW1Vel4IRKU-108" value="&lt;font style=&quot;font-size: 16px&quot;&gt;修改会员信息&lt;/font&gt;" style="ellipse;whiteSpace=wrap;html=1;fillColor=#d5e8d4;strokeColor=#82b366;" vertex="1" parent="1">
          <mxGeometry x="130" y="2710" width="140" height="70" as="geometry" />
        </mxCell>
        <mxCell id="SFyTLNCFnCW1Vel4IRKU-109" value="&lt;font style=&quot;font-size: 16px&quot;&gt;查看会员信息&lt;/font&gt;" style="ellipse;whiteSpace=wrap;html=1;fillColor=#d5e8d4;strokeColor=#82b366;" vertex="1" parent="1">
          <mxGeometry x="-45" y="2717.5" width="140" height="70" as="geometry" />
        </mxCell>
        <mxCell id="SFyTLNCFnCW1Vel4IRKU-112" value="&lt;font style=&quot;font-size: 16px&quot;&gt;管理图书信息&lt;/font&gt;" style="ellipse;whiteSpace=wrap;html=1;fillColor=#d80073;strokeColor=#A50040;fontColor=#ffffff;" vertex="1" parent="1">
          <mxGeometry x="1270" y="2290" width="140" height="75" as="geometry" />
        </mxCell>
        <mxCell id="SFyTLNCFnCW1Vel4IRKU-160" style="edgeStyle=none;rounded=0;orthogonalLoop=1;jettySize=auto;html=1;entryX=1;entryY=0.5;entryDx=0;entryDy=0;endArrow=none;endFill=0;fillColor=#f8cecc;strokeColor=#b85450;exitX=0;exitY=0.3333333333333333;exitDx=0;exitDy=0;exitPerimeter=0;" edge="1" parent="1" source="SFyTLNCFnCW1Vel4IRKU-162" target="SFyTLNCFnCW1Vel4IRKU-173">
          <mxGeometry relative="1" as="geometry">
            <mxPoint x="195" y="3858.913043478261" as="sourcePoint" />
          </mxGeometry>
        </mxCell>
        <mxCell id="SFyTLNCFnCW1Vel4IRKU-161" style="edgeStyle=none;orthogonalLoop=1;jettySize=auto;html=1;endArrow=none;endSize=12;endFill=0;fillColor=#f8cecc;strokeColor=#b85450;" edge="1" parent="1" source="SFyTLNCFnCW1Vel4IRKU-162" target="SFyTLNCFnCW1Vel4IRKU-174">
          <mxGeometry relative="1" as="geometry" />
        </mxCell>
        <mxCell id="SFyTLNCFnCW1Vel4IRKU-162" value="&lt;font style=&quot;font-size: 16px&quot;&gt;书店访客&lt;/font&gt;" style="shape=umlActor;verticalLabelPosition=bottom;verticalAlign=top;html=1;fillColor=#f8cecc;strokeColor=#b85450;" vertex="1" parent="1">
          <mxGeometry x="155" y="3760" width="100" height="120" as="geometry" />
        </mxCell>
        <mxCell id="SFyTLNCFnCW1Vel4IRKU-163" style="edgeStyle=none;orthogonalLoop=1;jettySize=auto;html=1;endArrow=none;endFill=0;endSize=12;fillColor=#d80073;strokeColor=#A50040;" edge="1" parent="1" source="SFyTLNCFnCW1Vel4IRKU-165">
          <mxGeometry relative="1" as="geometry">
            <mxPoint x="585" y="3760" as="targetPoint" />
          </mxGeometry>
        </mxCell>
        <mxCell id="SFyTLNCFnCW1Vel4IRKU-164" style="edgeStyle=none;orthogonalLoop=1;jettySize=auto;html=1;entryX=0.5;entryY=1;entryDx=0;entryDy=0;endArrow=none;endFill=0;endSize=12;fillColor=#d80073;strokeColor=#A50040;" edge="1" parent="1" source="SFyTLNCFnCW1Vel4IRKU-165">
          <mxGeometry relative="1" as="geometry">
            <mxPoint x="815" y="3865" as="targetPoint" />
          </mxGeometry>
        </mxCell>
        <mxCell id="SFyTLNCFnCW1Vel4IRKU-165" value="" style="shape=umlActor;verticalLabelPosition=bottom;verticalAlign=top;html=1;fillColor=#d80073;strokeColor=#A50040;fontColor=#ffffff;" vertex="1" parent="1">
          <mxGeometry x="535" y="3895" width="100" height="120" as="geometry" />
        </mxCell>
        <mxCell id="SFyTLNCFnCW1Vel4IRKU-166" style="edgeStyle=none;rounded=0;orthogonalLoop=1;jettySize=auto;html=1;entryX=1;entryY=0.5;entryDx=0;entryDy=0;endArrow=none;endFill=0;fillColor=#d5e8d4;strokeColor=#82b366;" edge="1" parent="1" source="SFyTLNCFnCW1Vel4IRKU-170" target="SFyTLNCFnCW1Vel4IRKU-197">
          <mxGeometry relative="1" as="geometry" />
        </mxCell>
        <mxCell id="SFyTLNCFnCW1Vel4IRKU-167" style="edgeStyle=none;rounded=0;orthogonalLoop=1;jettySize=auto;html=1;entryX=1;entryY=0.3;entryDx=0;entryDy=0;entryPerimeter=0;endArrow=none;endFill=0;fillColor=#d5e8d4;strokeColor=#82b366;" edge="1" parent="1" source="SFyTLNCFnCW1Vel4IRKU-170" target="SFyTLNCFnCW1Vel4IRKU-190">
          <mxGeometry relative="1" as="geometry" />
        </mxCell>
        <mxCell id="SFyTLNCFnCW1Vel4IRKU-168" style="edgeStyle=none;rounded=0;orthogonalLoop=1;jettySize=auto;html=1;endArrow=none;endFill=0;" edge="1" parent="1" source="SFyTLNCFnCW1Vel4IRKU-170" target="SFyTLNCFnCW1Vel4IRKU-198">
          <mxGeometry relative="1" as="geometry" />
        </mxCell>
        <mxCell id="SFyTLNCFnCW1Vel4IRKU-169" value="" style="edgeStyle=none;orthogonalLoop=1;jettySize=auto;html=1;dashed=1;endArrow=open;endSize=12;fillColor=#d5e8d4;strokeColor=#82b366;" edge="1" parent="1" source="SFyTLNCFnCW1Vel4IRKU-170" target="SFyTLNCFnCW1Vel4IRKU-198">
          <mxGeometry relative="1" as="geometry" />
        </mxCell>
        <mxCell id="SFyTLNCFnCW1Vel4IRKU-170" value="&lt;font style=&quot;font-size: 16px&quot;&gt;书店会员&lt;/font&gt;" style="shape=umlActor;verticalLabelPosition=bottom;verticalAlign=top;html=1;fillColor=#d5e8d4;strokeColor=#82b366;" vertex="1" parent="1">
          <mxGeometry x="265" y="3990" width="100" height="120" as="geometry" />
        </mxCell>
        <mxCell id="SFyTLNCFnCW1Vel4IRKU-171" value="&lt;font style=&quot;font-size: 16px&quot;&gt;书店管理员&lt;/font&gt;" style="text;html=1;align=center;verticalAlign=middle;resizable=0;points=[];autosize=1;fillColor=#d80073;strokeColor=#A50040;fontColor=#ffffff;" vertex="1" parent="1">
          <mxGeometry x="545" y="4025" width="100" height="20" as="geometry" />
        </mxCell>
        <mxCell id="SFyTLNCFnCW1Vel4IRKU-172" value="Extends" style="endArrow=block;endSize=16;endFill=0;html=1;entryX=1;entryY=1;entryDx=0;entryDy=0;entryPerimeter=0;fillColor=#d5e8d4;strokeColor=#82b366;" edge="1" parent="1" source="SFyTLNCFnCW1Vel4IRKU-170" target="SFyTLNCFnCW1Vel4IRKU-162">
          <mxGeometry width="160" relative="1" as="geometry">
            <mxPoint x="155" y="3870" as="sourcePoint" />
            <mxPoint x="155" y="3870" as="targetPoint" />
          </mxGeometry>
        </mxCell>
        <mxCell id="SFyTLNCFnCW1Vel4IRKU-173" value="&lt;font style=&quot;font-size: 16px&quot;&gt;浏览图书&lt;/font&gt;" style="ellipse;whiteSpace=wrap;html=1;fillColor=#f8cecc;strokeColor=#b85450;" vertex="1" parent="1">
          <mxGeometry x="-125" y="3820" width="140" height="70" as="geometry" />
        </mxCell>
        <mxCell id="SFyTLNCFnCW1Vel4IRKU-174" value="&lt;font style=&quot;font-size: 16px&quot;&gt;注册&lt;/font&gt;" style="ellipse;whiteSpace=wrap;html=1;fillColor=#f8cecc;strokeColor=#b85450;" vertex="1" parent="1">
          <mxGeometry x="275" y="3640" width="140" height="70" as="geometry" />
        </mxCell>
        <mxCell id="SFyTLNCFnCW1Vel4IRKU-175" value="&lt;font style=&quot;font-size: 16px&quot;&gt;模糊查询&lt;/font&gt;" style="ellipse;whiteSpace=wrap;html=1;fillColor=#f8cecc;strokeColor=#b85450;" vertex="1" parent="1">
          <mxGeometry x="-5" y="3640" width="140" height="70" as="geometry" />
        </mxCell>
        <mxCell id="SFyTLNCFnCW1Vel4IRKU-176" value="&lt;font style=&quot;font-size: 16px&quot;&gt;浏览新书&lt;/font&gt;" style="ellipse;whiteSpace=wrap;html=1;fillColor=#f8cecc;strokeColor=#b85450;" vertex="1" parent="1">
          <mxGeometry x="-365" y="3750" width="140" height="70" as="geometry" />
        </mxCell>
        <mxCell id="SFyTLNCFnCW1Vel4IRKU-177" value="&lt;font style=&quot;font-size: 16px&quot;&gt;浏览&lt;span&gt;排行榜&lt;/span&gt;&lt;/font&gt;" style="ellipse;whiteSpace=wrap;html=1;fillColor=#f8cecc;strokeColor=#b85450;" vertex="1" parent="1">
          <mxGeometry x="-305" y="3680" width="140" height="70" as="geometry" />
        </mxCell>
        <mxCell id="SFyTLNCFnCW1Vel4IRKU-178" value="《include》" style="endArrow=open;endSize=12;dashed=1;html=1;exitX=0.5;exitY=0;exitDx=0;exitDy=0;fillColor=#f8cecc;strokeColor=#b85450;" edge="1" parent="1" source="SFyTLNCFnCW1Vel4IRKU-173" target="SFyTLNCFnCW1Vel4IRKU-175">
          <mxGeometry x="0.1182" y="1" width="160" relative="1" as="geometry">
            <mxPoint x="-75" y="3819" as="sourcePoint" />
            <mxPoint x="-5" y="3630" as="targetPoint" />
            <mxPoint as="offset" />
          </mxGeometry>
        </mxCell>
        <mxCell id="SFyTLNCFnCW1Vel4IRKU-179" value="《include》" style="endArrow=open;endSize=12;dashed=1;html=1;exitX=0.35;exitY=0.029;exitDx=0;exitDy=0;exitPerimeter=0;fillColor=#f8cecc;strokeColor=#b85450;" edge="1" parent="1" source="SFyTLNCFnCW1Vel4IRKU-173" target="SFyTLNCFnCW1Vel4IRKU-176">
          <mxGeometry x="0.1182" y="1" width="160" relative="1" as="geometry">
            <mxPoint x="5.502525316941501" y="3730.2512626584708" as="sourcePoint" />
            <mxPoint x="-156.59765452541797" y="3712.435037551585" as="targetPoint" />
            <mxPoint as="offset" />
          </mxGeometry>
        </mxCell>
        <mxCell id="SFyTLNCFnCW1Vel4IRKU-180" value="《include》" style="endArrow=open;endSize=12;dashed=1;html=1;exitX=0.357;exitY=-0.043;exitDx=0;exitDy=0;exitPerimeter=0;fillColor=#f8cecc;strokeColor=#b85450;" edge="1" parent="1" source="SFyTLNCFnCW1Vel4IRKU-173" target="SFyTLNCFnCW1Vel4IRKU-177">
          <mxGeometry x="0.1182" y="1" width="160" relative="1" as="geometry">
            <mxPoint x="5.502525316941501" y="3730.2512626584708" as="sourcePoint" />
            <mxPoint x="-47.83600999594819" y="3667.2572381298114" as="targetPoint" />
            <mxPoint as="offset" />
          </mxGeometry>
        </mxCell>
        <mxCell id="SFyTLNCFnCW1Vel4IRKU-181" value="&lt;font style=&quot;font-size: 16px&quot;&gt;浏览打折图书&lt;/font&gt;" style="ellipse;whiteSpace=wrap;html=1;fillColor=#f8cecc;strokeColor=#b85450;" vertex="1" parent="1">
          <mxGeometry x="-165" y="3640" width="140" height="70" as="geometry" />
        </mxCell>
        <mxCell id="SFyTLNCFnCW1Vel4IRKU-182" value="《include》" style="endArrow=open;endSize=12;dashed=1;html=1;fillColor=#f8cecc;strokeColor=#b85450;" edge="1" parent="1" target="SFyTLNCFnCW1Vel4IRKU-181">
          <mxGeometry x="0.1182" y="1" width="160" relative="1" as="geometry">
            <mxPoint x="-55" y="3816" as="sourcePoint" />
            <mxPoint x="-57.51836862579239" y="3659.9773420248894" as="targetPoint" />
            <mxPoint as="offset" />
          </mxGeometry>
        </mxCell>
        <mxCell id="SFyTLNCFnCW1Vel4IRKU-183" value="&lt;font style=&quot;font-size: 16px&quot;&gt;分类浏览图书&lt;/font&gt;" style="ellipse;whiteSpace=wrap;html=1;fillColor=#f8cecc;strokeColor=#b85450;" vertex="1" parent="1">
          <mxGeometry x="-375" y="3830" width="140" height="70" as="geometry" />
        </mxCell>
        <mxCell id="SFyTLNCFnCW1Vel4IRKU-184" value="《include》" style="endArrow=open;endSize=12;dashed=1;html=1;exitX=0.293;exitY=0;exitDx=0;exitDy=0;exitPerimeter=0;fillColor=#f8cecc;strokeColor=#b85450;" edge="1" parent="1" source="SFyTLNCFnCW1Vel4IRKU-173" target="SFyTLNCFnCW1Vel4IRKU-183">
          <mxGeometry x="0.1689" y="1" width="160" relative="1" as="geometry">
            <mxPoint x="-66" y="3832.0299999999997" as="sourcePoint" />
            <mxPoint x="-158.73650695864444" y="3717.4431384628506" as="targetPoint" />
            <mxPoint as="offset" />
          </mxGeometry>
        </mxCell>
        <mxCell id="SFyTLNCFnCW1Vel4IRKU-185" value="&lt;font style=&quot;font-size: 16px&quot;&gt;登陆&lt;/font&gt;" style="ellipse;whiteSpace=wrap;html=1;fillColor=#d5e8d4;strokeColor=#82b366;" vertex="1" parent="1">
          <mxGeometry x="35" y="3960" width="140" height="70" as="geometry" />
        </mxCell>
        <mxCell id="SFyTLNCFnCW1Vel4IRKU-186" style="edgeStyle=none;orthogonalLoop=1;jettySize=auto;html=1;dashed=1;endArrow=open;endSize=12;entryX=0.5;entryY=0;entryDx=0;entryDy=0;fillColor=#d5e8d4;strokeColor=#82b366;" edge="1" parent="1" source="SFyTLNCFnCW1Vel4IRKU-190" target="SFyTLNCFnCW1Vel4IRKU-203">
          <mxGeometry relative="1" as="geometry" />
        </mxCell>
        <mxCell id="SFyTLNCFnCW1Vel4IRKU-187" value="《include》" style="edgeLabel;html=1;align=center;verticalAlign=middle;resizable=0;points=[];" vertex="1" connectable="0" parent="SFyTLNCFnCW1Vel4IRKU-186">
          <mxGeometry x="0.2426" y="2" relative="1" as="geometry">
            <mxPoint as="offset" />
          </mxGeometry>
        </mxCell>
        <mxCell id="SFyTLNCFnCW1Vel4IRKU-188" style="edgeStyle=none;orthogonalLoop=1;jettySize=auto;html=1;dashed=1;endArrow=open;endSize=12;fillColor=#d5e8d4;strokeColor=#82b366;" edge="1" parent="1" source="SFyTLNCFnCW1Vel4IRKU-190" target="SFyTLNCFnCW1Vel4IRKU-202">
          <mxGeometry relative="1" as="geometry" />
        </mxCell>
        <mxCell id="SFyTLNCFnCW1Vel4IRKU-189" value="《include》" style="edgeLabel;html=1;align=center;verticalAlign=middle;resizable=0;points=[];" vertex="1" connectable="0" parent="SFyTLNCFnCW1Vel4IRKU-188">
          <mxGeometry x="-0.5159" y="1" relative="1" as="geometry">
            <mxPoint as="offset" />
          </mxGeometry>
        </mxCell>
        <mxCell id="SFyTLNCFnCW1Vel4IRKU-190" value="&lt;font style=&quot;font-size: 16px&quot;&gt;我的账户&lt;/font&gt;" style="ellipse;whiteSpace=wrap;html=1;fillColor=#d5e8d4;strokeColor=#82b366;" vertex="1" parent="1">
          <mxGeometry x="25" y="4140" width="130" height="70" as="geometry" />
        </mxCell>
        <mxCell id="SFyTLNCFnCW1Vel4IRKU-191" style="edgeStyle=none;orthogonalLoop=1;jettySize=auto;html=1;dashed=1;endArrow=open;endSize=12;fillColor=#d5e8d4;strokeColor=#82b366;" edge="1" parent="1" source="SFyTLNCFnCW1Vel4IRKU-197" target="SFyTLNCFnCW1Vel4IRKU-199">
          <mxGeometry relative="1" as="geometry" />
        </mxCell>
        <mxCell id="SFyTLNCFnCW1Vel4IRKU-192" value="《include》" style="edgeLabel;html=1;align=center;verticalAlign=middle;resizable=0;points=[];" vertex="1" connectable="0" parent="SFyTLNCFnCW1Vel4IRKU-191">
          <mxGeometry x="-0.1812" relative="1" as="geometry">
            <mxPoint as="offset" />
          </mxGeometry>
        </mxCell>
        <mxCell id="SFyTLNCFnCW1Vel4IRKU-193" style="edgeStyle=none;orthogonalLoop=1;jettySize=auto;html=1;entryX=1;entryY=0;entryDx=0;entryDy=0;dashed=1;endArrow=open;endSize=12;fillColor=#d5e8d4;strokeColor=#82b366;" edge="1" parent="1" source="SFyTLNCFnCW1Vel4IRKU-197" target="SFyTLNCFnCW1Vel4IRKU-200">
          <mxGeometry relative="1" as="geometry" />
        </mxCell>
        <mxCell id="SFyTLNCFnCW1Vel4IRKU-194" value="《include》" style="edgeLabel;html=1;align=center;verticalAlign=middle;resizable=0;points=[];" vertex="1" connectable="0" parent="SFyTLNCFnCW1Vel4IRKU-193">
          <mxGeometry x="0.2716" relative="1" as="geometry">
            <mxPoint x="9.46" y="-5.1" as="offset" />
          </mxGeometry>
        </mxCell>
        <mxCell id="SFyTLNCFnCW1Vel4IRKU-195" style="edgeStyle=none;orthogonalLoop=1;jettySize=auto;html=1;dashed=1;endArrow=open;endSize=12;fillColor=#d5e8d4;strokeColor=#82b366;" edge="1" parent="1" source="SFyTLNCFnCW1Vel4IRKU-197" target="SFyTLNCFnCW1Vel4IRKU-201">
          <mxGeometry relative="1" as="geometry" />
        </mxCell>
        <mxCell id="SFyTLNCFnCW1Vel4IRKU-196" value="《include》" style="edgeLabel;html=1;align=center;verticalAlign=middle;resizable=0;points=[];" vertex="1" connectable="0" parent="SFyTLNCFnCW1Vel4IRKU-195">
          <mxGeometry x="0.2579" y="1" relative="1" as="geometry">
            <mxPoint x="30" y="18.9" as="offset" />
          </mxGeometry>
        </mxCell>
        <mxCell id="SFyTLNCFnCW1Vel4IRKU-197" value="&lt;font style=&quot;font-size: 16px&quot;&gt;购物车&lt;/font&gt;" style="ellipse;whiteSpace=wrap;html=1;fillColor=#d5e8d4;strokeColor=#82b366;" vertex="1" parent="1">
          <mxGeometry x="-25" y="4050" width="140" height="70" as="geometry" />
        </mxCell>
        <mxCell id="SFyTLNCFnCW1Vel4IRKU-198" value="&lt;font style=&quot;font-size: 16px&quot;&gt;我的订单&lt;/font&gt;" style="ellipse;whiteSpace=wrap;html=1;fillColor=#d5e8d4;strokeColor=#82b366;" vertex="1" parent="1">
          <mxGeometry x="475" y="4150" width="140" height="75" as="geometry" />
        </mxCell>
        <mxCell id="SFyTLNCFnCW1Vel4IRKU-199" value="&lt;font style=&quot;font-size: 16px&quot;&gt;查看购物车&lt;/font&gt;" style="ellipse;whiteSpace=wrap;html=1;fillColor=#d5e8d4;strokeColor=#82b366;" vertex="1" parent="1">
          <mxGeometry x="-295" y="3990" width="140" height="70" as="geometry" />
        </mxCell>
        <mxCell id="SFyTLNCFnCW1Vel4IRKU-200" value="&lt;font style=&quot;font-size: 16px&quot;&gt;修改购物车物品&lt;/font&gt;" style="ellipse;whiteSpace=wrap;html=1;fillColor=#d5e8d4;strokeColor=#82b366;" vertex="1" parent="1">
          <mxGeometry x="-285" y="4085" width="140" height="70" as="geometry" />
        </mxCell>
        <mxCell id="SFyTLNCFnCW1Vel4IRKU-201" value="&lt;font style=&quot;font-size: 16px&quot;&gt;提交订单&lt;/font&gt;" style="ellipse;whiteSpace=wrap;html=1;fillColor=#d5e8d4;strokeColor=#82b366;" vertex="1" parent="1">
          <mxGeometry x="-275" y="4180" width="140" height="70" as="geometry" />
        </mxCell>
        <mxCell id="SFyTLNCFnCW1Vel4IRKU-202" value="&lt;font style=&quot;font-size: 16px&quot;&gt;维护账户信息&lt;/font&gt;" style="ellipse;whiteSpace=wrap;html=1;fillColor=#d5e8d4;strokeColor=#82b366;" vertex="1" parent="1">
          <mxGeometry x="155" y="4230" width="140" height="70" as="geometry" />
        </mxCell>
        <mxCell id="SFyTLNCFnCW1Vel4IRKU-203" value="&lt;font style=&quot;font-size: 16px&quot;&gt;查看账户信息&lt;/font&gt;" style="ellipse;whiteSpace=wrap;html=1;fillColor=#d5e8d4;strokeColor=#82b366;" vertex="1" parent="1">
          <mxGeometry x="-65" y="4230" width="140" height="70" as="geometry" />
        </mxCell>
        <mxCell id="SFyTLNCFnCW1Vel4IRKU-204" style="edgeStyle=none;rounded=0;orthogonalLoop=1;jettySize=auto;html=1;entryX=1;entryY=1;entryDx=0;entryDy=0;endArrow=none;endFill=0;fillColor=#d5e8d4;strokeColor=#82b366;exitX=0.25;exitY=0.1;exitDx=0;exitDy=0;exitPerimeter=0;" edge="1" parent="1" source="SFyTLNCFnCW1Vel4IRKU-170" target="SFyTLNCFnCW1Vel4IRKU-185">
          <mxGeometry relative="1" as="geometry">
            <mxPoint x="195" y="4099.295154185022" as="sourcePoint" />
            <mxPoint x="18" y="4026" as="targetPoint" />
          </mxGeometry>
        </mxCell>
        <mxCell id="SFyTLNCFnCW1Vel4IRKU-205" value="&lt;font style=&quot;font-size: 16px&quot;&gt;管理图书分类信息&lt;/font&gt;" style="ellipse;whiteSpace=wrap;html=1;fillColor=#d80073;strokeColor=#A50040;fontColor=#ffffff;" vertex="1" parent="1">
          <mxGeometry x="525" y="3680" width="140" height="75" as="geometry" />
        </mxCell>
        <mxCell id="SFyTLNCFnCW1Vel4IRKU-206" value="&lt;font style=&quot;font-size: 16px&quot;&gt;管理图书信息&lt;/font&gt;" style="ellipse;whiteSpace=wrap;html=1;fillColor=#d80073;strokeColor=#A50040;fontColor=#ffffff;" vertex="1" parent="1">
          <mxGeometry x="815" y="3825" width="140" height="75" as="geometry" />
        </mxCell>
        <mxCell id="SFyTLNCFnCW1Vel4IRKU-111" value="&lt;font style=&quot;font-size: 16px&quot;&gt;管理分类信息&lt;/font&gt;" style="ellipse;whiteSpace=wrap;html=1;fillColor=#d80073;strokeColor=#A50040;fontColor=#ffffff;" vertex="1" parent="1">
          <mxGeometry x="1060" y="2165" width="140" height="75" as="geometry" />
        </mxCell>
        <mxCell id="SFyTLNCFnCW1Vel4IRKU-209" style="edgeStyle=none;orthogonalLoop=1;jettySize=auto;html=1;endArrow=none;endFill=0;endSize=12;fillColor=#d80073;strokeColor=#A50040;" edge="1" parent="1" source="SFyTLNCFnCW1Vel4IRKU-71" target="SFyTLNCFnCW1Vel4IRKU-111">
          <mxGeometry relative="1" as="geometry">
            <mxPoint x="1110" y="2155" as="targetPoint" />
            <mxPoint x="1110" y="2290" as="sourcePoint" />
          </mxGeometry>
        </mxCell>
        <mxCell id="SFyTLNCFnCW1Vel4IRKU-210" value="&lt;font style=&quot;font-size: 16px&quot;&gt;图书详情&lt;/font&gt;" style="ellipse;whiteSpace=wrap;html=1;fillColor=#f8cecc;strokeColor=#b85450;" vertex="1" parent="1">
          <mxGeometry x="-250" y="1970" width="140" height="70" as="geometry" />
        </mxCell>
        <mxCell id="SFyTLNCFnCW1Vel4IRKU-211" value="《include》" style="endArrow=open;endSize=12;dashed=1;html=1;exitX=0;exitY=0.5;exitDx=0;exitDy=0;fillColor=#f8cecc;strokeColor=#b85450;" edge="1" parent="1" source="SFyTLNCFnCW1Vel4IRKU-79" target="SFyTLNCFnCW1Vel4IRKU-210">
          <mxGeometry x="0.1689" y="1" width="160" relative="1" as="geometry">
            <mxPoint x="-15.900000000000473" y="1920" as="sourcePoint" />
            <mxPoint x="-174.1098641713842" y="1959.5493783523189" as="targetPoint" />
            <mxPoint as="offset" />
          </mxGeometry>
        </mxCell>
        <mxCell id="SFyTLNCFnCW1Vel4IRKU-213" style="edgeStyle=none;orthogonalLoop=1;jettySize=auto;html=1;dashed=1;endArrow=open;endSize=12;fillColor=#d5e8d4;strokeColor=#82b366;entryX=0.983;entryY=0.373;entryDx=0;entryDy=0;exitX=0.5;exitY=1;exitDx=0;exitDy=0;entryPerimeter=0;" edge="1" parent="1" source="SFyTLNCFnCW1Vel4IRKU-96" target="SFyTLNCFnCW1Vel4IRKU-91">
          <mxGeometry relative="1" as="geometry">
            <mxPoint x="136.99864862397044" y="2692.2767267075324" as="sourcePoint" />
            <mxPoint x="227.17428366626336" y="2763.0499779973047" as="targetPoint" />
            <Array as="points" />
          </mxGeometry>
        </mxCell>
        <mxCell id="SFyTLNCFnCW1Vel4IRKU-214" value="《include》" style="edgeLabel;html=1;align=center;verticalAlign=middle;resizable=0;points=[];" vertex="1" connectable="0" parent="SFyTLNCFnCW1Vel4IRKU-213">
          <mxGeometry x="-0.5159" y="1" relative="1" as="geometry">
            <mxPoint as="offset" />
          </mxGeometry>
        </mxCell>
        <mxCell id="SFyTLNCFnCW1Vel4IRKU-215" value="&lt;font style=&quot;font-size: 16px&quot;&gt;查看历史订单&lt;/font&gt;" style="ellipse;whiteSpace=wrap;html=1;fillColor=#d5e8d4;strokeColor=#82b366;" vertex="1" parent="1">
          <mxGeometry x="355" y="2340" width="140" height="70" as="geometry" />
        </mxCell>
        <mxCell id="SFyTLNCFnCW1Vel4IRKU-216" value="&lt;font style=&quot;font-size: 16px&quot;&gt;删除订单&lt;/font&gt;" style="ellipse;whiteSpace=wrap;html=1;fillColor=#d5e8d4;strokeColor=#82b366;" vertex="1" parent="1">
          <mxGeometry x="510" y="2385" width="140" height="70" as="geometry" />
        </mxCell>
        <mxCell id="SFyTLNCFnCW1Vel4IRKU-217" style="edgeStyle=none;orthogonalLoop=1;jettySize=auto;html=1;dashed=1;endArrow=open;endSize=12;fillColor=#d5e8d4;strokeColor=#82b366;entryX=0.5;entryY=1;entryDx=0;entryDy=0;exitX=0.567;exitY=0.013;exitDx=0;exitDy=0;exitPerimeter=0;" edge="1" parent="1" source="SFyTLNCFnCW1Vel4IRKU-104" target="SFyTLNCFnCW1Vel4IRKU-216">
          <mxGeometry relative="1" as="geometry">
            <mxPoint x="207.8813131048073" y="2466.516414184959" as="sourcePoint" />
            <mxPoint x="237.13242417944548" y="2418.4856755015917" as="targetPoint" />
          </mxGeometry>
        </mxCell>
        <mxCell id="SFyTLNCFnCW1Vel4IRKU-218" value="《include》" style="edgeLabel;html=1;align=center;verticalAlign=middle;resizable=0;points=[];" vertex="1" connectable="0" parent="SFyTLNCFnCW1Vel4IRKU-217">
          <mxGeometry x="-0.1812" relative="1" as="geometry">
            <mxPoint as="offset" />
          </mxGeometry>
        </mxCell>
        <mxCell id="SFyTLNCFnCW1Vel4IRKU-219" style="edgeStyle=none;orthogonalLoop=1;jettySize=auto;html=1;dashed=1;endArrow=open;endSize=12;fillColor=#d5e8d4;strokeColor=#82b366;entryX=0.5;entryY=1;entryDx=0;entryDy=0;" edge="1" parent="1" target="SFyTLNCFnCW1Vel4IRKU-215">
          <mxGeometry relative="1" as="geometry">
            <mxPoint x="445" y="2477.5" as="sourcePoint" />
            <mxPoint x="590" y="2465" as="targetPoint" />
          </mxGeometry>
        </mxCell>
        <mxCell id="SFyTLNCFnCW1Vel4IRKU-220" value="《include》" style="edgeLabel;html=1;align=center;verticalAlign=middle;resizable=0;points=[];" vertex="1" connectable="0" parent="SFyTLNCFnCW1Vel4IRKU-219">
          <mxGeometry x="-0.1812" relative="1" as="geometry">
            <mxPoint as="offset" />
          </mxGeometry>
        </mxCell>
        <mxCell id="SFyTLNCFnCW1Vel4IRKU-222" value="&lt;font style=&quot;font-size: 16px&quot;&gt;查看分类信息&lt;/font&gt;" style="ellipse;whiteSpace=wrap;html=1;fillColor=#d80073;strokeColor=#A50040;fontColor=#ffffff;" vertex="1" parent="1">
          <mxGeometry x="980" y="2005" width="140" height="75" as="geometry" />
        </mxCell>
        <mxCell id="SFyTLNCFnCW1Vel4IRKU-223" value="&lt;font style=&quot;font-size: 16px&quot;&gt;添加分类信息&lt;/font&gt;" style="ellipse;whiteSpace=wrap;html=1;fillColor=#d80073;strokeColor=#A50040;fontColor=#ffffff;" vertex="1" parent="1">
          <mxGeometry x="1140" y="1965" width="140" height="75" as="geometry" />
        </mxCell>
        <mxCell id="SFyTLNCFnCW1Vel4IRKU-224" value="&lt;font style=&quot;font-size: 16px&quot;&gt;删除分类信息&lt;/font&gt;" style="ellipse;whiteSpace=wrap;html=1;fillColor=#d80073;strokeColor=#A50040;fontColor=#ffffff;" vertex="1" parent="1">
          <mxGeometry x="1250" y="2035" width="140" height="75" as="geometry" />
        </mxCell>
        <mxCell id="SFyTLNCFnCW1Vel4IRKU-225" value="&lt;font style=&quot;font-size: 16px&quot;&gt;查看图书信息&lt;/font&gt;" style="ellipse;whiteSpace=wrap;html=1;fillColor=#d80073;strokeColor=#A50040;fontColor=#ffffff;" vertex="1" parent="1">
          <mxGeometry x="1340" y="2155" width="140" height="75" as="geometry" />
        </mxCell>
        <mxCell id="SFyTLNCFnCW1Vel4IRKU-226" value="&lt;font style=&quot;font-size: 16px&quot;&gt;添加图书信息&lt;/font&gt;" style="ellipse;whiteSpace=wrap;html=1;fillColor=#d80073;strokeColor=#A50040;fontColor=#ffffff;" vertex="1" parent="1">
          <mxGeometry x="1480" y="2225" width="140" height="75" as="geometry" />
        </mxCell>
        <mxCell id="SFyTLNCFnCW1Vel4IRKU-227" value="&lt;font style=&quot;font-size: 16px&quot;&gt;删除图书信息&lt;/font&gt;" style="ellipse;whiteSpace=wrap;html=1;fillColor=#d80073;strokeColor=#A50040;fontColor=#ffffff;" vertex="1" parent="1">
          <mxGeometry x="1500" y="2335" width="140" height="75" as="geometry" />
        </mxCell>
        <mxCell id="SFyTLNCFnCW1Vel4IRKU-228" value="&lt;font style=&quot;font-size: 16px&quot;&gt;修改信息&lt;/font&gt;" style="ellipse;whiteSpace=wrap;html=1;fillColor=#d80073;strokeColor=#A50040;fontColor=#ffffff;" vertex="1" parent="1">
          <mxGeometry x="1400" y="2407.5" width="140" height="75" as="geometry" />
        </mxCell>
        <mxCell id="SFyTLNCFnCW1Vel4IRKU-229" style="edgeStyle=none;orthogonalLoop=1;jettySize=auto;html=1;dashed=1;endArrow=open;endSize=12;fillColor=#d80073;strokeColor=#A50040;exitX=0.567;exitY=0.013;exitDx=0;exitDy=0;exitPerimeter=0;" edge="1" parent="1" target="SFyTLNCFnCW1Vel4IRKU-222">
          <mxGeometry relative="1" as="geometry">
            <mxPoint x="1100" y="2138.475" as="sourcePoint" />
            <mxPoint x="1225.62" y="2109.9999999999995" as="targetPoint" />
          </mxGeometry>
        </mxCell>
        <mxCell id="SFyTLNCFnCW1Vel4IRKU-230" value="《include》" style="edgeLabel;html=1;align=center;verticalAlign=middle;resizable=0;points=[];" vertex="1" connectable="0" parent="SFyTLNCFnCW1Vel4IRKU-229">
          <mxGeometry x="-0.1812" relative="1" as="geometry">
            <mxPoint as="offset" />
          </mxGeometry>
        </mxCell>
        <mxCell id="SFyTLNCFnCW1Vel4IRKU-234" style="edgeStyle=none;orthogonalLoop=1;jettySize=auto;html=1;dashed=1;endArrow=open;endSize=12;fillColor=#d80073;strokeColor=#A50040;exitX=0.5;exitY=0;exitDx=0;exitDy=0;entryX=0.5;entryY=1;entryDx=0;entryDy=0;" edge="1" parent="1" source="SFyTLNCFnCW1Vel4IRKU-111" target="SFyTLNCFnCW1Vel4IRKU-223">
          <mxGeometry relative="1" as="geometry">
            <mxPoint x="1175" y="2048.515" as="sourcePoint" />
            <mxPoint x="1119.5203111446372" y="2011.478202244014" as="targetPoint" />
          </mxGeometry>
        </mxCell>
        <mxCell id="SFyTLNCFnCW1Vel4IRKU-235" value="《include》" style="edgeLabel;html=1;align=center;verticalAlign=middle;resizable=0;points=[];" vertex="1" connectable="0" parent="SFyTLNCFnCW1Vel4IRKU-234">
          <mxGeometry x="-0.1812" relative="1" as="geometry">
            <mxPoint as="offset" />
          </mxGeometry>
        </mxCell>
        <mxCell id="SFyTLNCFnCW1Vel4IRKU-236" style="edgeStyle=none;orthogonalLoop=1;jettySize=auto;html=1;dashed=1;endArrow=open;endSize=12;fillColor=#d80073;strokeColor=#A50040;entryX=0.5;entryY=1;entryDx=0;entryDy=0;" edge="1" parent="1" source="SFyTLNCFnCW1Vel4IRKU-112" target="SFyTLNCFnCW1Vel4IRKU-225">
          <mxGeometry relative="1" as="geometry">
            <mxPoint x="1395.48" y="2290.0049999999997" as="sourcePoint" />
            <mxPoint x="1340.0003111446372" y="2252.968202244014" as="targetPoint" />
          </mxGeometry>
        </mxCell>
        <mxCell id="SFyTLNCFnCW1Vel4IRKU-237" value="《include》" style="edgeLabel;html=1;align=center;verticalAlign=middle;resizable=0;points=[];" vertex="1" connectable="0" parent="SFyTLNCFnCW1Vel4IRKU-236">
          <mxGeometry x="-0.1812" relative="1" as="geometry">
            <mxPoint as="offset" />
          </mxGeometry>
        </mxCell>
        <mxCell id="SFyTLNCFnCW1Vel4IRKU-238" style="edgeStyle=none;orthogonalLoop=1;jettySize=auto;html=1;dashed=1;endArrow=open;endSize=12;fillColor=#d80073;strokeColor=#A50040;entryX=0.5;entryY=1;entryDx=0;entryDy=0;" edge="1" parent="1" source="SFyTLNCFnCW1Vel4IRKU-111" target="SFyTLNCFnCW1Vel4IRKU-224">
          <mxGeometry relative="1" as="geometry">
            <mxPoint x="1335.4799999999996" y="2120.0049999999997" as="sourcePoint" />
            <mxPoint x="1280.0003111446367" y="2082.968202244014" as="targetPoint" />
          </mxGeometry>
        </mxCell>
        <mxCell id="SFyTLNCFnCW1Vel4IRKU-239" value="《include》" style="edgeLabel;html=1;align=center;verticalAlign=middle;resizable=0;points=[];" vertex="1" connectable="0" parent="SFyTLNCFnCW1Vel4IRKU-238">
          <mxGeometry x="-0.1812" relative="1" as="geometry">
            <mxPoint as="offset" />
          </mxGeometry>
        </mxCell>
        <mxCell id="SFyTLNCFnCW1Vel4IRKU-240" style="edgeStyle=none;orthogonalLoop=1;jettySize=auto;html=1;dashed=1;endArrow=open;endSize=12;fillColor=#d80073;strokeColor=#A50040;entryX=0;entryY=1;entryDx=0;entryDy=0;" edge="1" parent="1" source="SFyTLNCFnCW1Vel4IRKU-112" target="SFyTLNCFnCW1Vel4IRKU-226">
          <mxGeometry relative="1" as="geometry">
            <mxPoint x="1467.7399999999996" y="2310.0049999999997" as="sourcePoint" />
            <mxPoint x="1412.2603111446367" y="2272.968202244014" as="targetPoint" />
          </mxGeometry>
        </mxCell>
        <mxCell id="SFyTLNCFnCW1Vel4IRKU-241" value="《include》" style="edgeLabel;html=1;align=center;verticalAlign=middle;resizable=0;points=[];" vertex="1" connectable="0" parent="SFyTLNCFnCW1Vel4IRKU-240">
          <mxGeometry x="-0.1812" relative="1" as="geometry">
            <mxPoint as="offset" />
          </mxGeometry>
        </mxCell>
        <mxCell id="SFyTLNCFnCW1Vel4IRKU-242" style="edgeStyle=none;orthogonalLoop=1;jettySize=auto;html=1;dashed=1;endArrow=open;endSize=12;fillColor=#d80073;strokeColor=#A50040;exitX=0.7;exitY=0.96;exitDx=0;exitDy=0;exitPerimeter=0;entryX=0.236;entryY=0.06;entryDx=0;entryDy=0;entryPerimeter=0;" edge="1" parent="1" source="SFyTLNCFnCW1Vel4IRKU-112" target="SFyTLNCFnCW1Vel4IRKU-228">
          <mxGeometry relative="1" as="geometry">
            <mxPoint x="1449.9999999999998" y="2390.0049999999997" as="sourcePoint" />
            <mxPoint x="1394.520311144637" y="2352.968202244014" as="targetPoint" />
          </mxGeometry>
        </mxCell>
        <mxCell id="SFyTLNCFnCW1Vel4IRKU-243" value="《include》" style="edgeLabel;html=1;align=center;verticalAlign=middle;resizable=0;points=[];" vertex="1" connectable="0" parent="SFyTLNCFnCW1Vel4IRKU-242">
          <mxGeometry x="-0.1812" relative="1" as="geometry">
            <mxPoint as="offset" />
          </mxGeometry>
        </mxCell>
        <mxCell id="SFyTLNCFnCW1Vel4IRKU-244" style="edgeStyle=none;orthogonalLoop=1;jettySize=auto;html=1;dashed=1;endArrow=open;endSize=12;fillColor=#d80073;strokeColor=#A50040;entryX=0;entryY=0;entryDx=0;entryDy=0;" edge="1" parent="1" source="SFyTLNCFnCW1Vel4IRKU-112" target="SFyTLNCFnCW1Vel4IRKU-227">
          <mxGeometry relative="1" as="geometry">
            <mxPoint x="1510" y="2368.515" as="sourcePoint" />
            <mxPoint x="1454.5203111446372" y="2331.478202244014" as="targetPoint" />
          </mxGeometry>
        </mxCell>
        <mxCell id="SFyTLNCFnCW1Vel4IRKU-245" value="《include》" style="edgeLabel;html=1;align=center;verticalAlign=middle;resizable=0;points=[];" vertex="1" connectable="0" parent="SFyTLNCFnCW1Vel4IRKU-244">
          <mxGeometry x="-0.1812" relative="1" as="geometry">
            <mxPoint as="offset" />
          </mxGeometry>
        </mxCell>
      </root>
    </mxGraphModel>
  </diagram>
</mxfile>
